HIERARCHY
ROOT Hips
{
	OFFSET 0.000000 0.000000 0.000000
	CHANNELS 6 Xposition Yposition Zposition Zrotation Yrotation Xrotation 
	JOINT LowerBack
	{
		OFFSET 0.000000 0.000000 0.000000
		CHANNELS 3 Zrotation Yrotation Xrotation
		JOINT Spine
		{
			OFFSET 0.028270 2.035590 -0.193380
			CHANNELS 3 Zrotation Yrotation Xrotation
			JOINT Spine1
			{
				OFFSET 0.056720 2.048850 -0.042750
				CHANNELS 3 Zrotation Yrotation Xrotation
				JOINT Neck
				{
					OFFSET 0.000000 0.000000 0.000000
					CHANNELS 3 Zrotation Yrotation Xrotation
					JOINT Neck1
					{
						OFFSET -0.054170 1.746240 0.172020
						CHANNELS 3 Zrotation Yrotation Xrotation
						JOINT Head
						{
							OFFSET 0.104070 1.761360 -0.123970
							CHANNELS 3 Zrotation Yrotation Xrotation
							End Site
							{
								OFFSET 0.000000 0.000000 0.000000
							}
						}
					}
				}
				JOINT LeftShoulder
				{
					OFFSET 0.000000 0.000000 0.000000
					CHANNELS 3 Zrotation Yrotation Xrotation
					JOINT LeftArm
					{
						OFFSET 3.362410 1.200890 -0.311210
						CHANNELS 3 Zrotation Yrotation Xrotation
						JOINT LeftForeArm
						{
							OFFSET 4.983000 -0.000000 -0.000000
							CHANNELS 3 Zrotation Yrotation Xrotation
							JOINT LeftHand
							{
								OFFSET 3.483560 -0.000000 -0.000000
								CHANNELS 3 Zrotation Yrotation Xrotation
								JOINT LeftFingerBase
								{
									OFFSET 0.000000 0.000000 0.000000
									CHANNELS 3 Zrotation Yrotation Xrotation
									JOINT LeftHandIndex1
									{
										OFFSET 0.715260 -0.000000 -0.000000
										CHANNELS 3 Zrotation Yrotation Xrotation
										End Site
										{
											OFFSET 0.000000 0.000000 0.000000
										}
									}
								}
								JOINT LThumb
								{
									OFFSET 0.000000 0.000000 0.000000
									CHANNELS 3 Zrotation Yrotation Xrotation
									End Site
									{
										OFFSET 0.000000 0.000000 0.000000
									}
								}
							}
						}
					}
				}
				JOINT RightShoulder
				{
					OFFSET 0.000000 0.000000 0.000000
					CHANNELS 3 Zrotation Yrotation Xrotation
					JOINT RightArm
					{
						OFFSET -3.136600 1.374050 -0.404650
						CHANNELS 3 Zrotation Yrotation Xrotation
						JOINT RightForeArm
						{
							OFFSET -5.241900 -0.000000 -0.000000
							CHANNELS 3 Zrotation Yrotation Xrotation
							JOINT RightHand
							{
								OFFSET -3.444170 -0.000000 -0.000000
								CHANNELS 3 Zrotation Yrotation Xrotation
								JOINT RightFingerBase
								{
									OFFSET 0.000000 0.000000 0.000000
									CHANNELS 3 Zrotation Yrotation Xrotation
									JOINT RightHandIndex1
									{
										OFFSET -0.622530 -0.000000 -0.000000
										CHANNELS 3 Zrotation Yrotation Xrotation
										End Site
										{
											OFFSET 0.000000 0.000000 0.000000
										}
									}
								}
								JOINT RThumb
								{
									OFFSET 0.000000 0.000000 0.000000
									CHANNELS 3 Zrotation Yrotation Xrotation
									End Site
									{
										OFFSET 0.000000 0.000000 0.000000
									}
								}
							}
						}
					}
				}
			}
		}
	}
}
}
MOTION
Frames: 6
Frame Time: 0.008333
7.671512 21.874575 1.735645 53.153779 -80.649481 -11.978912 -3.584896 -2.054811 -3.574921 -0.820601 -1.835973 -3.014508 -2.251469 -1.954056 2.055582 3.710884 -8.291627 -5.288785 -0.525793 -0.065156 0.460787 0.000000 0.000000 0.000000 7.372457 -2.607834 2.668176 -24.510249 -26.733210 -9.380986 -0.992155 -50.337671 -0.040483 5.904882 1.315992 0.051057 -0.177759 0.364736 0.000000 0.000000 0.000000 0.000000 0.000000 0.000000 0.000000 0.182412 -5.601523 3.463869 19.502769 34.290373 -5.249884 1.654145 36.269386 -0.005484 -4.146269 6.264893 -0.247804 0.160089 -0.330504 0.000000 0.000000 0.000000 0.000000 0.000000 0.000000 0.000000 
7.539462 21.907969 1.726730 52.704279 -80.524387 -9.758742 -3.304460 -2.156269 -3.805252 -0.711489 -1.957683 -3.043448 -2.059166 -2.083081 2.232525 3.426082 -8.737260 -5.503856 -0.325297 -0.046103 0.384455 0.000000 0.000000 0.000000 7.616311 -2.537723 2.901579 -21.967341 -25.822128 -8.407121 -1.098488 -49.811100 -0.031668 4.681433 1.404495 0.045135 -0.168662 0.350563 0.000000 0.000000 0.000000 0.000000 0.000000 0.000000 0.000000 -0.552496 -5.998359 3.497908 16.435490 33.496500 -5.840651 1.639400 36.181855 -0.005512 -4.237927 6.333574 -0.256338 0.166721 -0.335476 0.000000 0.000000 0.000000 0.000000 0.000000 0.000000 0.000000 
7.401151 21.921200 1.719086 52.476099 -80.433669 -7.669259 -3.036667 -2.255848 -4.169419 -0.603763 -2.076315 -3.106894 -1.877289 -2.210430 2.415317 3.157284 -9.255902 -5.716087 -0.121837 -0.026652 0.309556 0.000000 0.000000 0.000000 7.917165 -2.327979 3.111891 -19.439066 -24.702035 -7.395711 -1.181113 -49.660204 -0.024534 3.642943 1.424083 0.036516 -0.160793 0.339582 0.000000 0.000000 0.000000 0.000000 0.000000 0.000000 0.000000 -1.288838 -6.463798 3.505467 13.397838 32.514789 -6.586385 1.604490 36.310271 -0.006760 -4.544400 6.335941 -0.275171 0.176369 -0.341511 0.000000 0.000000 0.000000 0.000000 0.000000 0.000000 0.000000 
7.255657 21.915813 1.711733 52.502678 -80.367123 -5.786525 -2.806895 -2.355921 -4.631882 -0.504110 -2.192562 -3.198155 -1.708197 -2.336506 2.598235 2.921064 -9.839703 -5.930626 0.081260 -0.006915 0.234424 0.000000 0.000000 0.000000 8.289910 -1.972173 3.298132 -17.019564 -23.400940 -6.430719 -1.236527 -49.826463 -0.019289 2.838017 1.423987 0.028999 -0.155170 0.331910 0.000000 0.000000 0.000000 0.000000 0.000000 0.000000 0.000000 -1.998822 -6.986119 3.494568 10.461956 31.313105 -7.506516 1.553937 36.692399 -0.009158 -5.016477 6.240416 -0.299508 0.188652 -0.348176 0.000000 0.000000 0.000000 0.000000 0.000000 0.000000 0.000000 
7.102175 21.893899 1.703785 52.768467 -80.310687 -4.146592 -2.629814 -2.460969 -5.147704 -0.417031 -2.310131 -3.306535 -1.554219 -2.464643 2.779144 2.731657 -10.486747 -6.152903 0.279939 0.012949 0.157243 0.000000 0.000000 0.000000 8.745457 -1.467311 3.460483 -14.790075 -21.956384 -5.585403 -1.265513 -50.242275 -0.015870 2.269372 1.460076 0.024378 -0.152187 0.327113 0.000000 0.000000 0.000000 0.000000 0.000000 0.000000 0.000000 -2.651331 -7.563777 3.473011 7.675877 29.896776 -8.580753 1.493268 37.348220 -0.012547 -5.594978 6.042356 -0.324046 0.202870 -0.355097 0.000000 0.000000 0.000000 0.000000 0.000000 0.000000 0.000000 
6.940184 21.857739 1.694577 53.209428 -80.252424 -2.741084 -2.506585 -2.574449 -5.674447 -0.343606 -2.432612 -3.421385 -1.415962 -2.598095 2.956152 2.593048 -11.177133 -6.383186 0.471076 0.032730 0.077810 0.000000 0.000000 0.000000 9.282865 -0.828223 3.600542 -12.814339 -20.389420 -4.908894 -1.271947 -50.857973 -0.014026 1.900768 1.576613 0.022851 -0.151589 0.324453 0.000000 0.000000 0.000000 0.000000 0.000000 0.000000 0.000000 -3.234231 -8.178228 3.447841 5.097202 28.260010 -9.772719 1.428161 38.311919 -0.016613 -6.194788 5.748243 -0.342387 0.217669 -0.361964 0.000000 0.000000 0.000000 0.000000 0.000000 0.000000 0.000000 
